<svg width="104" height="23" viewBox="0 0 104 23" fill="none" xmlns="http://www.w3.org/2000/svg">
<path d="M11.16 0.559999V6.672C10.6907 6.50133 10.3707 6.416 10.2 6.416C9.70933 6.416 9.28267 6.576 8.92 6.896C8.55733 7.19467 8.376 7.62133 8.376 8.176C8.376 8.688 8.55733 9.25333 8.92 9.872L9.4 10.704C10.2747 12.24 10.712 13.744 10.712 15.216C10.712 17.1147 9.976 18.7787 8.504 20.208C7.05333 21.6373 5.24 22.352 3.064 22.352C1.976 22.352 0.973333 22.1493 0.056 21.744V15.568C0.632 15.9307 1.208 16.112 1.784 16.112C2.31733 16.112 2.75467 15.9627 3.096 15.664C3.43733 15.344 3.608 14.9387 3.608 14.448C3.608 14.2133 3.30933 13.5733 2.712 12.528C1.77333 10.8427 1.304 9.168 1.304 7.504C1.304 5.49867 2.01867 3.77067 3.448 2.32C4.87733 0.869333 6.584 0.143999 8.568 0.143999C9.464 0.143999 10.328 0.282666 11.16 0.559999ZM21.718 14.64V9.04C22.998 9.04 23.638 8.54933 23.638 7.568C23.638 6.672 23.1473 6.224 22.166 6.224C21.1847 6.224 20.694 6.832 20.694 8.048V22H14.326V8.72C14.326 6.864 14.6247 5.34933 15.222 4.176C15.8193 3.00267 16.7793 2.04267 18.102 1.296C19.446 0.527999 20.8967 0.143999 22.454 0.143999C24.6087 0.143999 26.422 0.879999 27.894 2.352C29.3873 3.80267 30.134 5.60533 30.134 7.76C30.134 9.91467 29.4833 11.6 28.182 12.816C26.902 14.032 25.0673 14.64 22.678 14.64H21.718ZM43.6365 0.143999C45.6418 0.143999 47.5085 0.645332 49.2365 1.648C50.9645 2.62933 52.3298 3.984 53.3325 5.712C54.3352 7.41867 54.8365 9.264 54.8365 11.248C54.8365 13.232 54.3352 15.088 53.3325 16.816C52.3298 18.5227 50.9645 19.8773 49.2365 20.88C47.5085 21.8613 45.6418 22.352 43.6365 22.352C41.6312 22.352 39.7645 21.8613 38.0365 20.88C36.3085 19.8773 34.9432 18.5227 33.9405 16.816C32.9378 15.088 32.4365 13.232 32.4365 11.248C32.4365 9.264 32.9378 7.41867 33.9405 5.712C34.9432 3.984 36.3085 2.62933 38.0365 1.648C39.7645 0.645332 41.6312 0.143999 43.6365 0.143999ZM43.6045 16.144C44.9698 16.144 46.1325 15.664 47.0925 14.704C48.0525 13.744 48.5325 12.592 48.5325 11.248C48.5325 9.904 48.0418 8.752 47.0605 7.792C46.1005 6.81067 44.9485 6.32 43.6045 6.32C42.2605 6.32 41.0978 6.81067 40.1165 7.792C39.1565 8.752 38.6765 9.904 38.6765 11.248C38.6765 12.592 39.1565 13.744 40.1165 14.704C41.0765 15.664 42.2392 16.144 43.6045 16.144ZM65.1342 14.64V9.04C66.4142 9.04 67.0542 8.54933 67.0542 7.568C67.0542 6.672 66.5636 6.224 65.5822 6.224C64.6009 6.224 64.1102 6.832 64.1102 8.048V22H57.7422V8.72C57.7422 6.864 58.0409 5.34933 58.6382 4.176C59.2356 3.00267 60.1956 2.04267 61.5182 1.296C62.8622 0.527999 64.3129 0.143999 65.8702 0.143999C68.0249 0.143999 69.8383 0.879999 71.3103 2.352C72.8036 3.80267 73.5503 5.60533 73.5503 7.76C73.5503 9.91467 72.8996 11.6 71.5983 12.816C70.3183 14.032 68.4836 14.64 66.0942 14.64H65.1342ZM83.4687 0.655998V22H77.1327V0.655998H83.4687ZM95.8498 11.312V16.912H94.0578V22H87.6898V8.432C87.6898 5.808 88.4044 3.77067 89.8338 2.32C91.2631 0.869333 93.2791 0.143999 95.8818 0.143999C98.3778 0.143999 100.223 0.805332 101.418 2.128C102.612 3.45067 103.21 5.47733 103.21 8.208V22H96.8738V8.624C96.8738 7.81333 96.7671 7.248 96.5538 6.928C96.3618 6.58667 96.0204 6.416 95.5298 6.416C94.5484 6.416 94.0578 7.152 94.0578 8.624V11.312H95.8498Z" fill="#1DB954"/>
</svg>
